<?xml version="1.0" standalone="no"?>
<!DOCTYPE svg PUBLIC "-//W3C//DTD SVG 20010904//EN"
 "http://www.w3.org/TR/2001/REC-SVG-20010904/DTD/svg10.dtd">
<svg version="1.0" xmlns="http://www.w3.org/2000/svg"
 width="512.000000pt" height="512.000000pt" viewBox="0 0 512.000000 512.000000"
 preserveAspectRatio="xMidYMid meet">
<metadata>
Created by potrace 1.14, written by Peter Selinger 2001-2017
</metadata>
<g transform="translate(0.000000,512.000000) scale(0.100000,-0.100000)"
fill="#000000" stroke="none">
<path d="M2530 4834 c-43 -12 -44 -28 -45 -485 l0 -437 -258 -258 -259 -258
-796 -1 c-601 0 -802 -3 -818 -12 -12 -7 -29 -30 -38 -52 -8 -22 -24 -59 -35
-83 -71 -152 -281 -634 -281 -645 0 -24 23 -61 44 -70 11 -5 42 -9 69 -8 l47
1 0 -1048 0 -1048 -55 0 c-46 0 -60 -4 -80 -25 -30 -29 -32 -64 -6 -96 l19
-24 2521 0 c2237 0 2522 2 2535 15 9 8 18 30 22 47 5 26 1 37 -19 57 -22 22
-35 26 -82 26 l-55 0 0 1049 0 1049 48 -2 c66 -4 101 16 108 61 4 27 -37 130
-155 388 -15 33 -59 131 -97 217 -38 87 -77 168 -86 180 l-17 23 -804 1 -804
0 -259 260 -260 259 1 185 0 185 263 5 c260 5 263 5 280 28 16 20 18 48 16
245 -1 122 -2 228 -3 234 0 7 -14 19 -31 28 -24 12 -77 15 -322 14 -161 -1
-300 -3 -308 -5z"/>
</g>
</svg>
